solid bioprinter_mm
facet normal 0.0 0.0 1.0
outer loop
vertex 2.000000000 9.900000000 0.500000000
vertex 22.100000000 14.000000000 0.500000000
vertex 2.000000000 14.000000000 0.500000000
endloop
endfacet
facet normal 0.0 0.0 -1.0
outer loop
vertex 2.000000000 14.000000000 0.000000000
vertex 22.100000000 14.000000000 0.000000000
vertex 2.000000000 9.900000000 0.000000000
endloop
endfacet
facet normal 0.0 0.0 1.0
outer loop
vertex 22.100000000 14.000000000 0.500000000
vertex 2.000000000 9.900000000 0.500000000
vertex 22.100000000 9.900000000 0.500000000
endloop
endfacet
facet normal 0.0 0.0 -1.0
outer loop
vertex 22.100000000 9.900000000 0.000000000
vertex 2.000000000 9.900000000 0.000000000
vertex 22.100000000 14.000000000 0.000000000
endloop
endfacet
facet normal 0.0 -1.0 0.0
outer loop
vertex 2.000000000 9.900000000 0.000000000
vertex 22.100000000 9.900000000 0.000000000
vertex 22.100000000 9.900000000 0.500000000
endloop
endfacet
facet normal 0.0 -1.0 0.0
outer loop
vertex 2.000000000 9.900000000 0.000000000
vertex 22.100000000 9.900000000 0.500000000
vertex 2.000000000 9.900000000 0.500000000
endloop
endfacet
facet normal 1.0 0.0 0.0
outer loop
vertex 22.100000000 9.900000000 0.000000000
vertex 22.100000000 14.000000000 0.000000000
vertex 22.100000000 14.000000000 0.500000000
endloop
endfacet
facet normal 1.0 0.0 0.0
outer loop
vertex 22.100000000 9.900000000 0.000000000
vertex 22.100000000 14.000000000 0.500000000
vertex 22.100000000 9.900000000 0.500000000
endloop
endfacet
facet normal 0.0 1.0 0.0
outer loop
vertex 22.100000000 14.000000000 0.000000000
vertex 2.000000000 14.000000000 0.000000000
vertex 2.000000000 14.000000000 0.500000000
endloop
endfacet
facet normal 0.0 1.0 -0.0
outer loop
vertex 22.100000000 14.000000000 0.000000000
vertex 2.000000000 14.000000000 0.500000000
vertex 22.100000000 14.000000000 0.500000000
endloop
endfacet
facet normal -1.0 0.0 0.0
outer loop
vertex 2.000000000 14.000000000 0.000000000
vertex 2.000000000 9.900000000 0.000000000
vertex 2.000000000 9.900000000 0.500000000
endloop
endfacet
facet normal -1.0 0.0 0.0
outer loop
vertex 2.000000000 14.000000000 0.000000000
vertex 2.000000000 9.900000000 0.500000000
vertex 2.000000000 14.000000000 0.500000000
endloop
endfacet
facet normal 0.0 0.0 1.0
outer loop
vertex 17.000000000 17.500000000 0.500000000
vertex 21.700000000 21.600000000 0.500000000
vertex 17.000000000 21.600000000 0.500000000
endloop
endfacet
facet normal 0.0 0.0 -1.0
outer loop
vertex 17.000000000 21.600000000 0.000000000
vertex 21.700000000 21.600000000 0.000000000
vertex 17.000000000 17.500000000 0.000000000
endloop
endfacet
facet normal 0.0 0.0 1.0
outer loop
vertex 21.700000000 21.600000000 0.500000000
vertex 17.000000000 17.500000000 0.500000000
vertex 21.700000000 17.500000000 0.500000000
endloop
endfacet
facet normal 0.0 0.0 -1.0
outer loop
vertex 21.700000000 17.500000000 0.000000000
vertex 17.000000000 17.500000000 0.000000000
vertex 21.700000000 21.600000000 0.000000000
endloop
endfacet
facet normal 0.0 -1.0 0.0
outer loop
vertex 17.000000000 17.500000000 0.000000000
vertex 21.700000000 17.500000000 0.000000000
vertex 21.700000000 17.500000000 0.500000000
endloop
endfacet
facet normal 0.0 -1.0 0.0
outer loop
vertex 17.000000000 17.500000000 0.000000000
vertex 21.700000000 17.500000000 0.500000000
vertex 17.000000000 17.500000000 0.500000000
endloop
endfacet
facet normal 1.0 0.0 0.0
outer loop
vertex 21.700000000 17.500000000 0.000000000
vertex 21.700000000 21.600000000 0.000000000
vertex 21.700000000 21.600000000 0.500000000
endloop
endfacet
facet normal 1.0 0.0 0.0
outer loop
vertex 21.700000000 17.500000000 0.000000000
vertex 21.700000000 21.600000000 0.500000000
vertex 21.700000000 17.500000000 0.500000000
endloop
endfacet
facet normal 0.0 1.0 0.0
outer loop
vertex 21.700000000 21.600000000 0.000000000
vertex 17.000000000 21.600000000 0.000000000
vertex 17.000000000 21.600000000 0.500000000
endloop
endfacet
facet normal 0.0 1.0 -0.0
outer loop
vertex 21.700000000 21.600000000 0.000000000
vertex 17.000000000 21.600000000 0.500000000
vertex 21.700000000 21.600000000 0.500000000
endloop
endfacet
facet normal -1.0 0.0 0.0
outer loop
vertex 17.000000000 21.600000000 0.000000000
vertex 17.000000000 17.500000000 0.000000000
vertex 17.000000000 17.500000000 0.500000000
endloop
endfacet
facet normal -1.0 0.0 0.0
outer loop
vertex 17.000000000 21.600000000 0.000000000
vertex 17.000000000 17.500000000 0.500000000
vertex 17.000000000 21.600000000 0.500000000
endloop
endfacet
endsolid bioprinter_mm
