solid bioprinter_mm
facet normal 0.0 0.0 1.0
outer loop
vertex 7.500000000 16.400000000 0.500000000
vertex 3.000000000 21.000000000 0.500000000
vertex 7.500000000 8.500000000 0.500000000
endloop
endfacet
facet normal 0.0 0.0 -1.0
outer loop
vertex 7.500000000 8.500000000 0.000000000
vertex 3.000000000 21.000000000 0.000000000
vertex 7.500000000 16.400000000 0.000000000
endloop
endfacet
facet normal 0.0 0.0 1.0
outer loop
vertex 3.000000000 3.900000000 0.500000000
vertex 7.500000000 8.500000000 0.500000000
vertex 3.000000000 21.000000000 0.500000000
endloop
endfacet
facet normal 0.0 0.0 -1.0
outer loop
vertex 3.000000000 21.000000000 0.000000000
vertex 7.500000000 8.500000000 0.000000000
vertex 3.000000000 3.900000000 0.000000000
endloop
endfacet
facet normal 0.0 0.0 1.0
outer loop
vertex 7.600000000 16.500000000 0.500000000
vertex 3.000000000 21.000000000 0.500000000
vertex 7.500000000 16.400000000 0.500000000
endloop
endfacet
facet normal 0.0 0.0 -1.0
outer loop
vertex 7.500000000 16.400000000 0.000000000
vertex 3.000000000 21.000000000 0.000000000
vertex 7.600000000 16.500000000 0.000000000
endloop
endfacet
facet normal 0.0 0.0 1.0
outer loop
vertex 3.000000000 3.900000000 0.500000000
vertex 7.600000000 8.400000000 0.500000000
vertex 7.500000000 8.500000000 0.500000000
endloop
endfacet
facet normal 0.0 -0.0 -1.0
outer loop
vertex 7.500000000 8.500000000 0.000000000
vertex 7.600000000 8.400000000 0.000000000
vertex 3.000000000 3.900000000 0.000000000
endloop
endfacet
facet normal 0.0 0.0 1.0
outer loop
vertex 15.500000000 16.500000000 0.500000000
vertex 3.000000000 21.000000000 0.500000000
vertex 7.600000000 16.500000000 0.500000000
endloop
endfacet
facet normal 0.0 0.0 -1.0
outer loop
vertex 7.600000000 16.500000000 0.000000000
vertex 3.000000000 21.000000000 0.000000000
vertex 15.500000000 16.500000000 0.000000000
endloop
endfacet
facet normal 0.0 0.0 1.0
outer loop
vertex 20.100000000 3.900000000 0.500000000
vertex 7.600000000 8.400000000 0.500000000
vertex 3.000000000 3.900000000 0.500000000
endloop
endfacet
facet normal 0.0 0.0 -1.0
outer loop
vertex 3.000000000 3.900000000 0.000000000
vertex 7.600000000 8.400000000 0.000000000
vertex 20.100000000 3.900000000 0.000000000
endloop
endfacet
facet normal 0.0 -0.0 1.0
outer loop
vertex 15.500000000 16.500000000 0.500000000
vertex 20.100000000 21.000000000 0.500000000
vertex 3.000000000 21.000000000 0.500000000
endloop
endfacet
facet normal 0.0 0.0 -1.0
outer loop
vertex 3.000000000 21.000000000 0.000000000
vertex 20.100000000 21.000000000 0.000000000
vertex 15.500000000 16.500000000 0.000000000
endloop
endfacet
facet normal 0.0 0.0 1.0
outer loop
vertex 20.100000000 3.900000000 0.500000000
vertex 15.500000000 8.400000000 0.500000000
vertex 7.600000000 8.400000000 0.500000000
endloop
endfacet
facet normal 0.0 0.0 -1.0
outer loop
vertex 7.600000000 8.400000000 0.000000000
vertex 15.500000000 8.400000000 0.000000000
vertex 20.100000000 3.900000000 0.000000000
endloop
endfacet
facet normal 0.0 -0.0 1.0
outer loop
vertex 15.600000000 16.400000000 0.500000000
vertex 20.100000000 21.000000000 0.500000000
vertex 15.500000000 16.500000000 0.500000000
endloop
endfacet
facet normal 0.0 0.0 -1.0
outer loop
vertex 15.500000000 16.500000000 0.000000000
vertex 20.100000000 21.000000000 0.000000000
vertex 15.600000000 16.400000000 0.000000000
endloop
endfacet
facet normal 0.0 0.0 1.0
outer loop
vertex 20.100000000 3.900000000 0.500000000
vertex 15.600000000 8.500000000 0.500000000
vertex 15.500000000 8.400000000 0.500000000
endloop
endfacet
facet normal 0.0 0.0 -1.0
outer loop
vertex 15.500000000 8.400000000 0.000000000
vertex 15.600000000 8.500000000 0.000000000
vertex 20.100000000 3.900000000 0.000000000
endloop
endfacet
facet normal 0.0 0.0 1.0
outer loop
vertex 15.600000000 8.500000000 0.500000000
vertex 20.100000000 21.000000000 0.500000000
vertex 15.600000000 16.400000000 0.500000000
endloop
endfacet
facet normal 0.0 0.0 -1.0
outer loop
vertex 15.600000000 16.400000000 0.000000000
vertex 20.100000000 21.000000000 0.000000000
vertex 15.600000000 8.500000000 0.000000000
endloop
endfacet
facet normal 0.0 0.0 1.0
outer loop
vertex 20.100000000 21.000000000 0.500000000
vertex 15.600000000 8.500000000 0.500000000
vertex 20.100000000 3.900000000 0.500000000
endloop
endfacet
facet normal 0.0 0.0 -1.0
outer loop
vertex 20.100000000 3.900000000 0.000000000
vertex 15.600000000 8.500000000 0.000000000
vertex 20.100000000 21.000000000 0.000000000
endloop
endfacet
facet normal -1.0 0.0 0.0
outer loop
vertex 3.000000000 21.000000000 0.000000000
vertex 3.000000000 3.900000000 0.000000000
vertex 3.000000000 3.900000000 0.500000000
endloop
endfacet
facet normal -1.0 0.0 0.0
outer loop
vertex 3.000000000 21.000000000 0.000000000
vertex 3.000000000 3.900000000 0.500000000
vertex 3.000000000 21.000000000 0.500000000
endloop
endfacet
facet normal 0.0 -1.0 0.0
outer loop
vertex 3.000000000 3.900000000 0.000000000
vertex 20.100000000 3.900000000 0.000000000
vertex 20.100000000 3.900000000 0.500000000
endloop
endfacet
facet normal 0.0 -1.0 0.0
outer loop
vertex 3.000000000 3.900000000 0.000000000
vertex 20.100000000 3.900000000 0.500000000
vertex 3.000000000 3.900000000 0.500000000
endloop
endfacet
facet normal 1.0 0.0 0.0
outer loop
vertex 20.100000000 3.900000000 0.000000000
vertex 20.100000000 21.000000000 0.000000000
vertex 20.100000000 21.000000000 0.500000000
endloop
endfacet
facet normal 1.0 0.0 0.0
outer loop
vertex 20.100000000 3.900000000 0.000000000
vertex 20.100000000 21.000000000 0.500000000
vertex 20.100000000 3.900000000 0.500000000
endloop
endfacet
facet normal 0.0 1.0 0.0
outer loop
vertex 20.100000000 21.000000000 0.000000000
vertex 3.000000000 21.000000000 0.000000000
vertex 3.000000000 21.000000000 0.500000000
endloop
endfacet
facet normal 0.0 1.0 -0.0
outer loop
vertex 20.100000000 21.000000000 0.000000000
vertex 3.000000000 21.000000000 0.500000000
vertex 20.100000000 21.000000000 0.500000000
endloop
endfacet
facet normal 0.7071067811865507 -0.7071067811865444 0.0
outer loop
vertex 7.500000000 16.400000000 0.000000000
vertex 7.600000000 16.500000000 0.000000000
vertex 7.600000000 16.500000000 0.500000000
endloop
endfacet
facet normal 0.7071067811865507 -0.7071067811865444 0.0
outer loop
vertex 7.500000000 16.400000000 0.000000000
vertex 7.600000000 16.500000000 0.500000000
vertex 7.500000000 16.400000000 0.500000000
endloop
endfacet
facet normal 0.0 -1.0 0.0
outer loop
vertex 7.600000000 16.500000000 0.000000000
vertex 15.500000000 16.500000000 0.000000000
vertex 15.500000000 16.500000000 0.500000000
endloop
endfacet
facet normal 0.0 -1.0 0.0
outer loop
vertex 7.600000000 16.500000000 0.000000000
vertex 15.500000000 16.500000000 0.500000000
vertex 7.600000000 16.500000000 0.500000000
endloop
endfacet
facet normal -0.7071067811865475 -0.7071067811865475 0.0
outer loop
vertex 15.500000000 16.500000000 0.000000000
vertex 15.600000000 16.400000000 0.000000000
vertex 15.600000000 16.400000000 0.500000000
endloop
endfacet
facet normal -0.7071067811865475 -0.7071067811865475 0.0
outer loop
vertex 15.500000000 16.500000000 0.000000000
vertex 15.600000000 16.400000000 0.500000000
vertex 15.500000000 16.500000000 0.500000000
endloop
endfacet
facet normal -1.0 0.0 0.0
outer loop
vertex 15.600000000 16.400000000 0.000000000
vertex 15.600000000 8.500000000 0.000000000
vertex 15.600000000 8.500000000 0.500000000
endloop
endfacet
facet normal -1.0 0.0 0.0
outer loop
vertex 15.600000000 16.400000000 0.000000000
vertex 15.600000000 8.500000000 0.500000000
vertex 15.600000000 16.400000000 0.500000000
endloop
endfacet
facet normal -0.7071067811865475 0.7071067811865475 0.0
outer loop
vertex 15.600000000 8.500000000 0.000000000
vertex 15.500000000 8.400000000 0.000000000
vertex 15.500000000 8.400000000 0.500000000
endloop
endfacet
facet normal -0.7071067811865475 0.7071067811865475 0.0
outer loop
vertex 15.600000000 8.500000000 0.000000000
vertex 15.500000000 8.400000000 0.500000000
vertex 15.600000000 8.500000000 0.500000000
endloop
endfacet
facet normal 0.0 1.0 0.0
outer loop
vertex 15.500000000 8.400000000 0.000000000
vertex 7.600000000 8.400000000 0.000000000
vertex 7.600000000 8.400000000 0.500000000
endloop
endfacet
facet normal 0.0 1.0 -0.0
outer loop
vertex 15.500000000 8.400000000 0.000000000
vertex 7.600000000 8.400000000 0.500000000
vertex 15.500000000 8.400000000 0.500000000
endloop
endfacet
facet normal 0.7071067811865507 0.7071067811865444 0.0
outer loop
vertex 7.600000000 8.400000000 0.000000000
vertex 7.500000000 8.500000000 0.000000000
vertex 7.500000000 8.500000000 0.500000000
endloop
endfacet
facet normal 0.7071067811865507 0.7071067811865444 -0.0
outer loop
vertex 7.600000000 8.400000000 0.000000000
vertex 7.500000000 8.500000000 0.500000000
vertex 7.600000000 8.400000000 0.500000000
endloop
endfacet
facet normal 1.0 0.0 0.0
outer loop
vertex 7.500000000 8.500000000 0.000000000
vertex 7.500000000 16.400000000 0.000000000
vertex 7.500000000 16.400000000 0.500000000
endloop
endfacet
facet normal 1.0 0.0 0.0
outer loop
vertex 7.500000000 8.500000000 0.000000000
vertex 7.500000000 16.400000000 0.500000000
vertex 7.500000000 8.500000000 0.500000000
endloop
endfacet
endsolid bioprinter_mm
