solid bioprinter_mm
facet normal -0.0 0.0 1.0
outer loop
vertex 4.000000000 19.000000000 0.500000000
vertex 8.100000000 8.100000000 0.500000000
vertex 8.100000000 19.000000000 0.500000000
endloop
endfacet
facet normal -0.0 -0.0 -1.0
outer loop
vertex 8.100000000 19.000000000 0.000000000
vertex 8.100000000 8.100000000 0.000000000
vertex 4.000000000 19.000000000 0.000000000
endloop
endfacet
facet normal -0.0 0.0 1.0
outer loop
vertex 8.200000000 8.000000000 0.500000000
vertex 21.100000000 3.500000000 0.500000000
vertex 21.100000000 8.000000000 0.500000000
endloop
endfacet
facet normal -0.0 -0.0 -1.0
outer loop
vertex 21.100000000 8.000000000 0.000000000
vertex 21.100000000 3.500000000 0.000000000
vertex 8.200000000 8.000000000 0.000000000
endloop
endfacet
facet normal 0.0 0.0 1.0
outer loop
vertex 4.000000000 3.500000000 0.500000000
vertex 8.100000000 8.100000000 0.500000000
vertex 4.000000000 19.000000000 0.500000000
endloop
endfacet
facet normal 0.0 0.0 -1.0
outer loop
vertex 4.000000000 19.000000000 0.000000000
vertex 8.100000000 8.100000000 0.000000000
vertex 4.000000000 3.500000000 0.000000000
endloop
endfacet
facet normal 0.0 0.0 1.0
outer loop
vertex 8.200000000 8.000000000 0.500000000
vertex 4.000000000 3.500000000 0.500000000
vertex 21.100000000 3.500000000 0.500000000
endloop
endfacet
facet normal 0.0 0.0 -1.0
outer loop
vertex 21.100000000 3.500000000 0.000000000
vertex 4.000000000 3.500000000 0.000000000
vertex 8.200000000 8.000000000 0.000000000
endloop
endfacet
facet normal 0.0 0.0 1.0
outer loop
vertex 4.000000000 3.500000000 0.500000000
vertex 8.200000000 8.000000000 0.500000000
vertex 8.100000000 8.100000000 0.500000000
endloop
endfacet
facet normal 0.0 -0.0 -1.0
outer loop
vertex 8.100000000 8.100000000 0.000000000
vertex 8.200000000 8.000000000 0.000000000
vertex 4.000000000 3.500000000 0.000000000
endloop
endfacet
facet normal -1.0 0.0 0.0
outer loop
vertex 4.000000000 19.000000000 0.000000000
vertex 4.000000000 3.500000000 0.000000000
vertex 4.000000000 3.500000000 0.500000000
endloop
endfacet
facet normal -1.0 0.0 0.0
outer loop
vertex 4.000000000 19.000000000 0.000000000
vertex 4.000000000 3.500000000 0.500000000
vertex 4.000000000 19.000000000 0.500000000
endloop
endfacet
facet normal 0.0 -1.0 0.0
outer loop
vertex 4.000000000 3.500000000 0.000000000
vertex 21.100000000 3.500000000 0.000000000
vertex 21.100000000 3.500000000 0.500000000
endloop
endfacet
facet normal 0.0 -1.0 0.0
outer loop
vertex 4.000000000 3.500000000 0.000000000
vertex 21.100000000 3.500000000 0.500000000
vertex 4.000000000 3.500000000 0.500000000
endloop
endfacet
facet normal 1.0 0.0 0.0
outer loop
vertex 21.100000000 3.500000000 0.000000000
vertex 21.100000000 8.000000000 0.000000000
vertex 21.100000000 8.000000000 0.500000000
endloop
endfacet
facet normal 1.0 0.0 0.0
outer loop
vertex 21.100000000 3.500000000 0.000000000
vertex 21.100000000 8.000000000 0.500000000
vertex 21.100000000 3.500000000 0.500000000
endloop
endfacet
facet normal 0.0 1.0 0.0
outer loop
vertex 21.100000000 8.000000000 0.000000000
vertex 8.200000000 8.000000000 0.000000000
vertex 8.200000000 8.000000000 0.500000000
endloop
endfacet
facet normal 0.0 1.0 -0.0
outer loop
vertex 21.100000000 8.000000000 0.000000000
vertex 8.200000000 8.000000000 0.500000000
vertex 21.100000000 8.000000000 0.500000000
endloop
endfacet
facet normal 0.7071067811865412 0.7071067811865538 0.0
outer loop
vertex 8.200000000 8.000000000 0.000000000
vertex 8.100000000 8.100000000 0.000000000
vertex 8.100000000 8.100000000 0.500000000
endloop
endfacet
facet normal 0.7071067811865412 0.7071067811865538 -0.0
outer loop
vertex 8.200000000 8.000000000 0.000000000
vertex 8.100000000 8.100000000 0.500000000
vertex 8.200000000 8.000000000 0.500000000
endloop
endfacet
facet normal 1.0 0.0 0.0
outer loop
vertex 8.100000000 8.100000000 0.000000000
vertex 8.100000000 19.000000000 0.000000000
vertex 8.100000000 19.000000000 0.500000000
endloop
endfacet
facet normal 1.0 0.0 0.0
outer loop
vertex 8.100000000 8.100000000 0.000000000
vertex 8.100000000 19.000000000 0.500000000
vertex 8.100000000 8.100000000 0.500000000
endloop
endfacet
facet normal 0.0 1.0 0.0
outer loop
vertex 8.100000000 19.000000000 0.000000000
vertex 4.000000000 19.000000000 0.000000000
vertex 4.000000000 19.000000000 0.500000000
endloop
endfacet
facet normal 0.0 1.0 -0.0
outer loop
vertex 8.100000000 19.000000000 0.000000000
vertex 4.000000000 19.000000000 0.500000000
vertex 8.100000000 19.000000000 0.500000000
endloop
endfacet
endsolid bioprinter_mm
